# xmcd
# 
# Track frame offsets:
#     150
#     18342
#     29359
#     43085
#     55954
#     71315
#     87147
#     106418
#     124259
#     140270
#     156672
#     184501
#     197949
#     211516
#     228626
#     249634
#     266707
#     282707
#     302042
#     318796
#     333460
# 
# Disc length: 4741
# 
# Revision: 3
# Processed by: cddbd v1.5.2PL0 Copyright (c) Steve Scherf et al.
# Submitted via: fre:ac v1.0.31
# 
DISCID=35128315
DTITLE=Roy Orbison - The Soul Of Rock And Roll Disc 4
DYEAR=2008
DGENRE=Rock/Pop
TTITLE0=Coming Home
TTITLE1=Waymore's Blues
TTITLE2=Oh, Pretty Woman
TTITLE3=In Dreams (from the motion picture Blue Velvet)
TTITLE4=Not Alone Any More
TTITLE5=You Got It
TTITLE6=She's a Mystery to Me
TTITLE7=California Blue
TTITLE8=Love So Beautiful
TTITLE9=(All I Can Do Is) Dream You (live)
TTITLE10=Oh, Pretty Woman (live)
TTITLE11=Heartbreak Radio
TTITLE12=You're the One
TTITLE13=Crying
TTITLE14=After the Love Has Gone
TTITLE15=I Drove All Night
TTITLE16=Wild Hearts Run Out of Time (from the motion picture Insignificance)
TTITLE17=You May Feel Me Crying (from the motion picture The End Of Violence)
TTITLE18=Life Fades Away (from the motion picture Less Than Zero)
TTITLE19=It's Over (live)
TTITLE20=We'll Take the Night
EXTD=
EXTT0=
EXTT1=
EXTT2=
EXTT3=
EXTT4=
EXTT5=
EXTT6=
EXTT7=
EXTT8=
EXTT9=
EXTT10=
EXTT11=
EXTT12=
EXTT13=
EXTT14=
EXTT15=
EXTT16=
EXTT17=
EXTT18=
EXTT19=
EXTT20=
PLAYORDER=
